Coordinates
version=1
nRows=6
nColumns=63
inDegrees=yes

Units are S.I. units (second, meters, Newtons, ...)
If the header above contains a line with 'inDegrees', this indicates whether rotational values are in degrees (yes) or radians (no).

endheader
time	pelvis_tilt	pelvis_list	pelvis_rotation	pelvis_tx	pelvis_ty	pelvis_tz	hip_flexion_r	hip_adduction_r	hip_rotation_r	knee_angle_r	knee_angle_r_beta	ankle_angle_r	subtalar_angle_r	mtp_angle_r	hip_flexion_l	hip_adduction_l	hip_rotation_l	knee_angle_l	knee_angle_l_beta	ankle_angle_l	subtalar_angle_l	mtp_angle_l	L5_S1_Flex_Ext	L5_S1_Lat_Bending	L5_S1_axial_rotation	L4_L5_Flex_Ext	L4_L5_Lat_Bending	L4_L5_axial_rotation	L3_L4_Flex_Ext	L3_L4_Lat_Bending	L3_L4_axial_rotation	L2_L3_Flex_Ext	L2_L3_Lat_Bending	L2_L3_axial_rotation	L1_L2_Flex_Ext	L1_L2_Lat_Bending	L1_L2_axial_rotation	L1_T12_Flex_Ext	L1_T12_Lat_Bending	L1_T12_axial_rotation	Abs_r3	Abs_r2	Abs_r1	Abs_t1	Abs_t2	neck_flexion	neck_bending	neck_rotation	arm_flex_r	arm_add_r	arm_rot_r	elbow_flex_r	pro_sup_r	wrist_flex_r	wrist_dev_r	arm_flex_l	arm_add_l	arm_rot_l	elbow_flex_l	pro_sup_l	wrist_flex_l	wrist_dev_l
2.416667	2.529847	-6.468851	90.699471	-0.005285	1.041456	0.467844	-0.930818	2.335736	4.209201	0.445016	0.007767	17.870054	4.980985	0.000000	0.258430	-5.340633	14.797558	1.570334	0.027408	17.619720	-6.867633	0.000000	0.034768	0.308016	0.256855	0.064567	0.409661	0.272909	0.057120	0.748910	0.272909	0.039736	0.748910	0.224748	0.032285	0.628106	0.208695	0.019866	0.477117	0.192641	0.248343	3.484340	1.428551	0.000000	0.000000	23.403267	3.293164	-1.203961	0.765280	-11.605605	43.510269	54.379803	85.539766	-8.664648	6.343813	13.169883	-10.197597	60.008193	52.545793	62.871154	-2.786474	10.409453
2.433333	2.602552	-6.426947	90.766362	-0.005451	1.041516	0.467797	-1.003868	2.410311	4.132681	0.439163	0.007665	17.577334	4.985778	0.000000	0.213668	-5.420407	14.920064	1.557164	0.027178	17.649924	-6.881427	0.000000	0.029173	0.316327	0.255037	0.054178	0.420716	0.270977	0.047929	0.769119	0.270977	0.033342	0.769119	0.223158	0.027090	0.645055	0.207218	0.016670	0.489991	0.191278	0.208382	3.578359	1.418440	0.000000	0.000000	23.430617	3.347233	-1.128061	0.461513	-11.491770	42.809676	54.513098	85.726260	-8.499702	6.490180	13.213337	-10.246176	60.623680	52.512103	61.672102	-3.201776	9.793901
2.450000	2.676861	-6.408123	90.818709	-0.005604	1.041524	0.467779	-1.034135	2.483224	4.054859	0.450524	0.007863	17.349127	5.013741	0.000000	0.209715	-5.499423	14.892310	1.585322	0.027669	17.752032	-6.699553	0.000000	0.027322	0.324687	0.255675	0.050739	0.431833	0.271654	0.044887	0.789443	0.271654	0.031226	0.789443	0.223715	0.025371	0.662101	0.207736	0.015612	0.502940	0.191756	0.195156	3.672920	1.421986	0.000000	0.000000	23.439984	3.447273	-1.004568	0.132745	-11.369485	42.049781	54.648564	85.743350	-8.256681	6.684571	13.246812	-10.285839	61.194586	52.478566	60.715602	-3.587644	9.185924
2.466667	2.761305	-6.372296	90.873167	-0.005763	1.041515	0.467783	-1.077756	2.565264	3.994081	0.449002	0.007837	17.165134	5.001128	0.000000	0.176602	-5.589617	14.968908	1.589904	0.027749	17.830488	-6.661847	0.000000	0.022528	0.334242	0.254302	0.041837	0.444542	0.270196	0.037012	0.812676	0.270196	0.025748	0.812676	0.222514	0.020920	0.681586	0.206620	0.012873	0.517741	0.190726	0.160918	3.781012	1.414351	0.000000	0.000000	23.453344	3.566548	-0.854023	-0.138875	-11.286527	41.413170	54.781259	85.880422	-8.080388	6.857883	13.300856	-10.313371	61.699238	52.455747	60.070515	-3.857068	8.729570
2.483333	2.842027	-6.349739	90.891806	-0.005894	1.041470	0.467830	-1.088048	2.639929	4.019695	0.458596	0.008004	17.022615	4.911624	0.000000	0.156277	-5.673313	15.037837	1.604115	0.027997	17.902662	-6.666385	0.000000	0.019711	0.343678	0.257880	0.036605	0.457092	0.273998	0.032383	0.835618	0.273998	0.022527	0.835618	0.225645	0.018303	0.700828	0.209528	0.011263	0.532357	0.193410	0.140791	3.887753	1.434253	0.000000	0.000000	23.463689	3.680087	-0.708220	-0.362298	-11.241289	40.889626	54.902815	85.917378	-7.890289	7.006635	13.364553	-10.325887	62.148970	52.438476	59.727144	-4.110429	8.305688
2.500000	2.914186	-6.345901	90.914975	-0.006020	1.041371	0.467907	-1.067872	2.704660	4.062709	0.468612	0.008179	16.939568	4.783094	0.000000	0.165162	-5.745581	15.109999	1.635055	0.028537	17.984399	-6.684124	0.000000	0.020762	0.352385	0.262064	0.038557	0.468672	0.278443	0.034109	0.856789	0.278443	0.023729	0.856789	0.229306	0.019279	0.718584	0.212927	0.011863	0.545845	0.196548	0.148299	3.986251	1.457520	0.000000	0.000000	23.439750	3.763428	-0.568986	-0.550902	-11.227271	40.469356	55.021094	85.845373	-7.724129	7.171378	13.452269	-10.326483	62.548388	52.433768	59.766627	-4.289085	7.980842
